# xmcd CD database file
#
# Track frame offsets:
#	150
#	22703
#	38232
#	55543
#	68527
#	84396
#	100495
#	114625
#	130329
#	142247
#	152561
#	167876
#	187992
#	209435
#	228358
#	247282
#
# Disc length: 3534 seconds
#
# Revision: 0
# Processed by: cddbd v1.5.2PL0 Copyright (c) Steve Scherf et al.
# Submitted via: CDex 1.70beta2
#
DISCID=d90dcc10
DTITLE=Country Roads - Country Roads 1/2
DYEAR=2009
DGENRE=Country
TTITLE0=Hank William - Southern Thunder
TTITLE1=Blake Shelton - Heavy Liftin
TTITLE2=Dusty Drake - Ain't Nobody's Business
TTITLE3=Shannon Brown - Big Man
TTITLE4=Rodney Atkins - It's america
TTITLE5=Lee Brice - Upper Middle Class White Trash
TTITLE6=Ray Scott - Dirty Shirt
TTITLE7=Whitney Duncan - The Bed That You Made
TTITLE8=Trick Pony - Speat
TTITLE9=ZZ Top - Tush
TTITLE10=Boy Howdy - You Really Got me
TTITLE11=Foghat - Drivin Wheel
TTITLE12=Blackfoot - Drivin Fool
TTITLE13=The desert Rose Band - I still believe in you
TTITLE14=Tim Mc Graw - Nothin to die for
TTITLE15=Zac Brown Band - Chicken Fried
EXTD=YEAR: 2009
EXTT0=
EXTT1=
EXTT2=
EXTT3=
EXTT4=
EXTT5=
EXTT6=
EXTT7=
EXTT8=
EXTT9=
EXTT10=
EXTT11=
EXTT12=
EXTT13=
EXTT14=
EXTT15=
PLAYORDER=
